<svg width="37" height="34" viewBox="0 0 37 34" fill="none" xmlns="http://www.w3.org/2000/svg">
<path fill-rule="evenodd" clip-rule="evenodd" d="M37 10.8182V31.0652C37 32.6833 35.6603 34 34.0138 34H2.98775C1.33971 34 0 32.6833 0 31.0652V10.8182H37ZM25.1199 0L15.8699 9.27273H11.8816L21.1332 0H25.1199ZM34.6875 0C35.4398 0 36.1043 0.367818 36.5267 0.930364L28.2033 9.27273H24.2165L33.4665 0H34.6875ZM18.9532 0L9.70171 9.27273H5.71496L14.9665 0H18.9532ZM12.7866 0L3.53504 9.27273H0.322208L9.57221 0H12.7866ZM31.2866 0L22.0366 9.27273H18.0498L27.2998 0H31.2866ZM37 2.63964V9.27273H30.3832L37 2.63964ZM7.39075 0L0 7.40891V2.31973C0 1.04164 1.03908 0 2.3125 0H7.39075Z" fill="#9BD0B0"/>
<path fill-rule="evenodd" clip-rule="evenodd" d="M12.3335 16.2277C12.3335 15.9603 12.4722 15.7115 12.6989 15.5709C12.9255 15.4287 13.2107 15.4163 13.4497 15.5369L25.783 21.7187C26.0451 21.8501 26.2085 22.1174 26.2085 22.4095C26.2085 22.7016 26.0451 22.969 25.7845 23.1003L13.4512 29.2822C13.3402 29.3362 13.223 29.3641 13.1043 29.3641C12.964 29.3641 12.8237 29.327 12.6989 29.2497C12.4722 29.1075 12.3335 28.8602 12.3335 28.5913V16.2277Z" fill="#4D3E55"/>
</svg>
