<svg width="41" height="41" viewBox="0 0 41 41" fill="none" xmlns="http://www.w3.org/2000/svg">
<circle cx="20.5" cy="20.5" r="20.5" fill="#CCE1F3"/>
<path fill-rule="evenodd" clip-rule="evenodd" d="M27 16C27 19.3137 24.3137 22 21 22C17.6863 22 15 19.3137 15 16C15 12.6863 17.6863 10 21 10C24.3137 10 27 12.6863 27 16ZM25.0947 22.8741C27.4336 21.4779 29 18.9219 29 16C29 11.5817 25.4183 8 21 8C16.5817 8 13 11.5817 13 16C13 18.9219 14.5664 21.4779 16.9053 22.8741C13.4241 24.4384 11 27.9361 11 32H13C13 27.5817 16.5817 24 21 24C25.4183 24 29 27.5817 29 32H31C31 27.9361 28.5759 24.4384 25.0947 22.8741Z" fill="black"/>
</svg>
