<svg width="122" height="123" viewBox="0 0 122 123" fill="none" xmlns="http://www.w3.org/2000/svg">
<mask id="path-1-inside-1" fill="white">
<path d="M36.9892 117.076C49.1686 122.291 62.7147 123.399 75.5796 120.232C88.4446 117.065 99.9288 109.796 108.296 99.5239C116.663 89.2514 121.458 76.534 121.957 63.2945C122.455 50.055 118.63 37.0131 111.058 26.1407C103.487 15.2683 92.5817 7.15643 79.9912 3.03162C67.4008 -1.09319 53.8097 -1.00672 41.2727 3.27796C28.7357 7.56264 17.9346 15.8126 10.5023 26.7804C3.06993 37.7483 -0.589477 50.8378 0.0772992 64.0699L61 61L36.9892 117.076Z"/>
</mask>
<path d="M36.9892 117.076C49.1686 122.291 62.7147 123.399 75.5796 120.232C88.4446 117.065 99.9288 109.796 108.296 99.5239C116.663 89.2514 121.458 76.534 121.957 63.2945C122.455 50.055 118.63 37.0131 111.058 26.1407C103.487 15.2683 92.5817 7.15643 79.9912 3.03162C67.4008 -1.09319 53.8097 -1.00672 41.2727 3.27796C28.7357 7.56264 17.9346 15.8126 10.5023 26.7804C3.06993 37.7483 -0.589477 50.8378 0.0772992 64.0699L61 61L36.9892 117.076Z" fill="#F9D91B" stroke="black" stroke-width="2" mask="url(#path-1-inside-1)"/>
<mask id="path-2-inside-2" fill="white">
<path d="M61 122.176C44.8218 122.176 29.3062 115.749 17.8665 104.309C6.42677 92.8696 -4.50047e-07 77.354 0 61.1758C4.50048e-07 44.9976 6.42677 29.482 17.8665 18.0423C29.3062 6.60255 44.8218 0.175781 61 0.175781L61 61.1758L61 122.176Z"/>
</mask>
<path d="M61 122.176C44.8218 122.176 29.3062 115.749 17.8665 104.309C6.42677 92.8696 -4.50047e-07 77.354 0 61.1758C4.50048e-07 44.9976 6.42677 29.482 17.8665 18.0423C29.3062 6.60255 44.8218 0.175781 61 0.175781L61 61.1758L61 122.176Z" fill="#D8D8D8" stroke="black" stroke-width="2" mask="url(#path-2-inside-2)"/>
<circle cx="61" cy="61.1758" r="38.5" fill="white" stroke="black"/>
<path d="M50.64 62.5C49.94 62.5 49.29 62.36 48.69 62.08C48.09 61.8 47.57 61.39 47.13 60.85C46.71 60.31 46.38 59.66 46.14 58.9C45.9 58.12 45.78 57.24 45.78 56.26C45.78 55.28 45.9 54.41 46.14 53.65C46.38 52.89 46.71 52.25 47.13 51.73C47.57 51.19 48.09 50.78 48.69 50.5C49.29 50.22 49.94 50.08 50.64 50.08C51.34 50.08 51.99 50.22 52.59 50.5C53.19 50.78 53.7 51.19 54.12 51.73C54.56 52.25 54.9 52.89 55.14 53.65C55.4 54.41 55.53 55.28 55.53 56.26C55.53 57.24 55.4 58.12 55.14 58.9C54.9 59.66 54.56 60.31 54.12 60.85C53.7 61.39 53.19 61.8 52.59 62.08C51.99 62.36 51.34 62.5 50.64 62.5ZM50.64 60.04C51.14 60.04 51.56 59.76 51.9 59.2C52.26 58.64 52.44 57.66 52.44 56.26C52.44 54.86 52.26 53.89 51.9 53.35C51.56 52.81 51.14 52.54 50.64 52.54C50.14 52.54 49.71 52.81 49.35 53.35C49.01 53.89 48.84 54.86 48.84 56.26C48.84 57.66 49.01 58.64 49.35 59.2C49.71 59.76 50.14 60.04 50.64 60.04ZM51.3 70.36L61.86 50.08H64.41L53.85 70.36H51.3ZM65.07 70.36C64.37 70.36 63.72 70.22 63.12 69.94C62.52 69.66 62 69.25 61.56 68.71C61.14 68.17 60.81 67.52 60.57 66.76C60.33 65.98 60.21 65.1 60.21 64.12C60.21 63.14 60.33 62.27 60.57 61.51C60.81 60.75 61.14 60.11 61.56 59.59C62 59.05 62.52 58.64 63.12 58.36C63.72 58.08 64.37 57.94 65.07 57.94C65.77 57.94 66.42 58.08 67.02 58.36C67.62 58.64 68.13 59.05 68.55 59.59C68.99 60.11 69.33 60.75 69.57 61.51C69.83 62.27 69.96 63.14 69.96 64.12C69.96 65.1 69.83 65.98 69.57 66.76C69.33 67.52 68.99 68.17 68.55 68.71C68.13 69.25 67.62 69.66 67.02 69.94C66.42 70.22 65.77 70.36 65.07 70.36ZM65.07 67.9C65.57 67.9 65.99 67.62 66.33 67.06C66.69 66.5 66.87 65.52 66.87 64.12C66.87 62.72 66.69 61.75 66.33 61.21C65.99 60.67 65.57 60.4 65.07 60.4C64.57 60.4 64.14 60.67 63.78 61.21C63.44 61.75 63.27 62.72 63.27 64.12C63.27 65.52 63.44 66.5 63.78 67.06C64.14 67.62 64.57 67.9 65.07 67.9Z" fill="#3E3832"/>
</svg>
