<svg width="91" height="54" viewBox="0 0 91 54" fill="none" xmlns="http://www.w3.org/2000/svg">
<path d="M90.675 46.128C90.675 34.2205 85.9511 22.8007 77.5424 14.3808C69.1337 5.96085 57.7291 1.23059 45.8375 1.23059C33.9459 1.23059 22.5413 5.96084 14.1326 14.3807C5.72394 22.8007 1 34.2205 1 46.128H18.6109C18.6109 38.8974 21.4794 31.963 26.5854 26.8502C31.6914 21.7374 38.6166 18.865 45.8375 18.865C53.0584 18.865 59.9836 21.7374 65.0896 26.8502C70.1956 31.963 73.0641 38.8974 73.0641 46.128H90.675Z" fill="#F3EBDF" stroke="black" stroke-width="0.5"/>
<path d="M90.6738 46.4539C90.7383 37.5742 88.1718 28.8748 83.2987 21.4558C78.4257 14.0367 71.465 8.23127 63.297 4.77349C55.1289 1.31572 46.1203 0.360951 37.4103 2.02992C28.7003 3.6989 20.6802 7.91666 14.3641 14.1498L26.726 26.7097C30.5613 22.9247 35.4313 20.3635 40.7203 19.3501C46.0092 18.3366 51.4795 18.9164 56.4394 21.0161C61.3993 23.1157 65.626 26.641 68.585 31.146C71.5441 35.6511 73.1026 40.9336 73.0634 46.3256L90.6738 46.4539Z" fill="#6AB889" stroke="black" stroke-width="0.5"/>
<path fill-rule="evenodd" clip-rule="evenodd" d="M47.2768 27.8753C50.616 23.1801 54.4249 17.8244 57.2748 13.9127C57.7731 13.2287 58.6901 13.0147 59.4447 13.3977C60.2745 13.8188 60.6235 14.821 60.2349 15.6666L49.2247 39.6234C50.1627 41.3797 50.4622 43.4824 49.9073 45.5572C48.7477 49.8935 44.2951 52.4658 39.9622 51.3025C35.6293 50.1392 33.0569 45.681 34.2165 41.3447C35.1797 37.743 38.4147 35.3583 41.966 35.3203C43.3332 33.4203 45.2155 30.7736 47.2768 27.8753Z" fill="#120101"/>
</svg>
