<svg width="106" height="17" fill="none" xmlns="http://www.w3.org/2000/svg"><g clip-path="url(#clip0)" fill="#0062BA"><path d="M58.504 16.296v-.993c-.773.772-1.5 1.103-2.824 1.103-1.302 0-2.25-.331-2.934-1.015-.62-.64-.95-1.566-.95-2.581 0-1.831 1.258-3.331 3.927-3.331h2.713v-.573c0-1.258-.618-1.81-2.14-1.81-1.103 0-1.61.266-2.206.95l-1.832-1.787c1.125-1.236 2.228-1.589 4.148-1.589 3.22 0 4.897 1.367 4.897 4.06v7.567h-2.8v-.001zm-.066-4.854h-2.273c-1.037 0-1.61.486-1.61 1.301 0 .795.53 1.324 1.654 1.324.794 0 1.302-.066 1.81-.552.309-.286.419-.75.419-1.456v-.617zm8.646 4.854c-2.36 0-3.353-1.655-3.353-3.287V.589h2.868v12.243c0 .684.288 1.037 1.016 1.037h1.103v2.427h-1.634zm6.97 0c-2.337 0-3.33-1.655-3.33-3.287V7.317H69.51V5.133h1.213V1.736h2.869v3.397h2.029v2.184h-2.03v5.515c0 .662.31 1.037.994 1.037h1.037v2.427h-1.568zm3.574-13.457V.5h2.935v2.339h-2.935zm.045 13.457V4.802h2.868v11.494h-2.868zm12.199 0v-6.95c0-1.566-.993-2.096-1.897-2.096s-1.92.53-1.92 2.096v6.949h-2.868V4.802h2.802V5.86c.75-.794 1.809-1.19 2.868-1.19 1.147 0 2.074.374 2.713 1.014.926.926 1.17 2.007 1.17 3.265v7.346h-2.868v.001zm12.088 0v-6.95c0-1.566-.994-2.096-1.897-2.096-.905 0-1.92.53-1.92 2.096v6.949h-2.868V4.802h2.802V5.86c.75-.794 1.808-1.19 2.868-1.19 1.147 0 2.074.374 2.713 1.014.926.926 1.17 2.007 1.17 3.265v7.346h-2.869l.001.001zM32 .5h9.6v3.2H32V.5zm0 6.4h9.6v3.2H32V6.9zm0 6.4h9.6v3.2H32v-3.2zM0 .5h3.2v3.2H0V.5zm0 6.4h3.2v3.2H0V6.9zm0 6.4h3.2v3.2H0v-3.2zM6.4.5h3.2v3.2H6.4V.5zm0 6.4h3.2v3.2H6.4V6.9zm0 6.4h3.2v3.2H6.4v-3.2zM12.8.5h16v9.6h-3.2V3.7H12.8V.5z"/><path d="M19.2 6.9h3.2v3.2h-3.2V6.9z"/><path d="M12.8 6.9H16v6.4h12.8v3.2h-16V6.9z"/></g><defs><clipPath id="clip0"><path fill="#fff" transform="translate(0 .5)" d="M0 0h106v16H0z"/></clipPath></defs></svg>
