<svg width="24" height="24" viewBox="0 0 24 24" fill="none" xmlns="http://www.w3.org/2000/svg">
<path fill-rule="evenodd" clip-rule="evenodd" d="M4.5 0H21V5H4.5C3.11929 5 2 3.88071 2 2.5C2 1.11929 3.11929 0 4.5 0Z" fill="#E7E9E9"/>
<path d="M21.5 4H4.5C3.673 4 3 3.327 3 2.5C3 1.673 3.673 1 4.5 1H21.5C21.776 1 22 0.776 22 0.5C22 0.225 21.776 0 21.5 0H4.5C3.121 0 2 1.122 2 2.5C2 2.618 2.008 2.734 2.023 2.847C2.008 2.896 2 2.947 2 3V21.5C2 22.878 3.121 24 4.5 24H21.5C21.776 24 22 23.776 22 23.5V4.5C22 4.225 21.776 4 21.5 4Z" fill="#C86151"/>
<path d="M16.5 19H7.5C7.224 19 7 18.776 7 18.5C7 15.451 8.606 13.978 10.163 13.367C9.457 12.818 9 11.962 9 11C9 9.346 10.346 8 12 8C13.654 8 15 9.346 15 11C15 11.962 14.543 12.818 13.837 13.367C15.394 13.977 17 15.451 17 18.5C17 18.776 16.776 19 16.5 19Z" fill="#E7E9E9"/>
<path fill-rule="evenodd" clip-rule="evenodd" d="M4.5 2C4.224 2 4 2.225 4 2.5C4 2.776 4.224 3 4.5 3H20.5C20.776 3 21 2.776 21 2.5C21 2.225 20.776 2 20.5 2H4.5Z" fill="#78706A"/>
</svg>
