<svg width="39" height="30" xmlns="http://www.w3.org/2000/svg" >
    <title>
        Ikon med sedler og mynter
    </title>
    <g fill="none" fill-rule="evenodd">
        <path fill="#E3B0A8" d="M3 0h36v19.5H3z" />
        <path fill="#F1D8D4" d="M31.5 0H36v19.5h-4.5z" />
        <path fill="#C2EAF7" d="M1.5 1.5h36V21h-36z" />
        <path fill="#E0F5FB" d="M30 1.5h4.5V21H30z" />
        <path fill="#9BD0B0" d="M0 3h36v19.5H0z" />
        <path fill="#CDE7D8" d="M28.5 3H33v19.5h-4.5z" />
        <path
                d="M4.5 11.901V6.103h.907l3.51 4.552V6.103h.848V11.9h-.907l-3.51-4.556V11.9H4.5zm6.482-2.824c0-.962.298-1.716.893-2.26C12.471 6.272 13.24 6 14.182 6c.617 0 1.173.128 1.668.384.495.255.873.612 1.133 1.07.26.457.39.976.39 1.556a3.05 3.05 0 01-.41 1.578c-.274.464-.662.815-1.163 1.054a3.728 3.728 0 01-1.623.358c-.629 0-1.191-.132-1.686-.396a2.715 2.715 0 01-1.126-1.08 2.92 2.92 0 01-.383-1.447zm.911.012c0 .699.217 1.25.65 1.651.433.402.976.603 1.63.603.665 0 1.213-.203 1.643-.609.43-.406.645-.982.645-1.728 0-.472-.092-.884-.276-1.236a1.94 1.94 0 00-.807-.819 2.44 2.44 0 00-1.192-.29c-.626 0-1.164.186-1.616.56-.451.372-.677.995-.677 1.868zm6.582 2.812V6.103h.885v2.875l3.318-2.875h1.199l-2.803 2.35L24 11.9h-1.167l-2.38-2.935-1.093.926v2.01h-.885z"
                fill="#117938"
        />
        <circle fill="#FECB86" cx="7.5" cy="24" r="6" />
        <path
                d="M16.5 30a4.5 4.5 0 110-9 4.5 4.5 0 010 9zm0-3a1.5 1.5 0 100-3 1.5 1.5 0 000 3z"
                fill="#E7E9E9"
        />
    </g>
</svg>
