<?xml version="1.0" encoding="UTF-8"?>
<svg width="24px" height="24px" viewBox="0 0 24 24" version="1.1" xmlns="http://www.w3.org/2000/svg" xmlns:xlink="http://www.w3.org/1999/xlink">
    <g id="↳-10-&quot;Branjsekalkis&quot;-STAMI" stroke="none" stroke-width="1" fill="none" fill-rule="evenodd">
        <g id="Landingsside-SF-statistikk" transform="translate(-263.000000, -360.000000)">
            <g id="4-tall" transform="translate(161.000000, 228.000000)">
                <g id="Group-21" transform="translate(0.000000, 132.000000)">
                    <g id="Color/26-places/home-1" transform="translate(102.000000, 0.000000)">
                        <path d="M19.2236992,6.86727273 C19.3109649,6.95363636 19.4273191,7 19.5454913,7 C19.7954711,7 20,6.79636364 20,6.54545455 L20,2.45454545 C20,2.20363636 19.7963801,2 19.5454913,2 L15.4549133,2 C15.2712918,2 15.1049417,2.11090909 15.0349473,2.28090909 C14.964044,2.45 15.0031317,2.64545455 15.1331212,2.77545455 L19.2236992,6.86727273 Z" id="Fill/home-1" fill="#78706A"></path>
                        <polygon id="Path" fill="#C86151" points="2 9.27425291 2 24 9 24 9 15 15 15 15 24 22 24 22 9.27425291 12 -5.32907052e-14"></polygon>
                        <path d="M23.8625822,10.2646631 C23.8585825,10.2620221 23.8565826,10.2549795 23.8525829,10.2505778 L12.3533694,0.126767709 C12.1623825,-0.042255903 11.8374047,-0.042255903 11.6464178,0.126767709 L0.147204382,10.2505778 C-0.033783238,10.4099178 -0.0597814596,10.6722565 0.136205134,10.8588867 C0.363189608,11.0587219 0.668168746,11.029671 0.847156503,10.875613 C0.849156366,10.8747327 0.852156161,10.8738524 0.854156024,10.872972 L12.0003936,1.06079923 L23.1456312,10.8738524 C23.1476311,10.8747327 23.1496309,10.875613 23.1516308,10.8764934 C23.3416178,11.0393547 23.6565963,11.0393547 23.8455833,10.8764934 C23.8475832,10.875613 23.850583,10.8747327 23.8525829,10.8738524 C24.0345704,10.7136321 24.0595687,10.447772 23.8625822,10.2646631 Z" id="Path" fill="#59514B"></path>
                    </g>
                </g>
            </g>
        </g>
    </g>
</svg>
