<?xml version="1.0" encoding="UTF-8"?>
<svg width="24px" height="24px" viewBox="0 0 24 20" version="1.1" xmlns="http://www.w3.org/2000/svg">
    <title>Color/21-settings/toolbox</title>
    <g id="Page-1" stroke="none" stroke-width="1" fill="none" fill-rule="evenodd">
        <g id="Bedrift1" transform="translate(0.000000, -4.000000)">
            <g id="Color/21-settings/toolbox">
                <g id="Group" transform="translate(0.000000, 4.500000)">
                    <path d="M12,9 C9.51471863,9 7.5,6.98528137 7.5,4.5 C7.5,2.01471863 9.51471863,0 12,0 C14.4852814,0 16.5,2.01471863 16.5,4.5 C16.5,6.98528137 14.4852814,9 12,9 Z M12,8 C13.9329966,8 15.5,6.43299662 15.5,4.5 C15.5,2.56700338 13.9329966,1 12,1 C10.0670034,1 8.5,2.56700338 8.5,4.5 C8.5,6.43299662 10.0670034,8 12,8 Z" id="Oval" fill="#654A28" fill-rule="nonzero"></path>
                    <path d="M0,10.5 L0,19 C0,19.276 0.244363636,19.5 0.545454545,19.5 L23.4545455,19.5 C23.7556364,19.5 24,19.276 24,19 L24,10.5 L0,10.5 Z" id="Path" fill="#B26D14"></path>
                    <path d="M0,4.5 L0,10 C0,10.276 0.244363636,10.5 0.545454545,10.5 L23.4545455,10.5 C23.7556364,10.5 24,10.276 24,10 L24,4.5 L0,4.5 Z" id="Path-Copy" fill="#D87F0A" transform="translate(12.000000, 7.500000) scale(1, -1) translate(-12.000000, -7.500000) "></path>
                    <rect id="Rectangle" fill="#FFBD66" x="10" y="9.5" width="4" height="3" rx="1"></rect>
                </g>
            </g>
        </g>
    </g>
</svg>
