<?xml version="1.0" encoding="UTF-8"?>
<svg width="44px" height="32px" viewBox="0 0 22 16" version="1.1" xmlns="http://www.w3.org/2000/svg" xmlns:xlink="http://www.w3.org/1999/xlink">
    <g id="⭐️-Mest-oppdaterte" stroke="none" stroke-width="1" fill="none" fill-rule="evenodd">
        <g id="Ny-landingsside" transform="translate(-993.000000, -327.000000)">
            <g id="4-tall" transform="translate(161.000000, 224.000000)">
                <g id="Group-23" transform="translate(729.000000, 103.000000)">
                    <g id="Flagg" transform="translate(103.000000, 0.000000)">
                        <rect id="Rectangle-Copy-13" fill="#C8102E" x="0" y="0" width="22" height="16"></rect>
                        <path d="M10,0 L10,6 L22,6 L22,10 L10,10 L10,16 L6,16 L6,10 L0,10 L0,6 L6,6 L6,0 L10,0 Z" id="Combined-Shape-Copy-2" fill="#FFFFFF"></path>
                        <path d="M9,0 L9,7 L22,7 L22,9 L9,9 L9,16 L7,16 L7,9 L0,9 L0,7 L7,7 L7,0 L9,0 Z" id="Combined-Shape-Copy-3" fill="#003087"></path>
                    </g>
                </g>
            </g>
        </g>
    </g>
</svg>