<?xml version="1.0" encoding="UTF-8"?>
<svg width="36px" height="48px" viewBox="0 0 18 24" version="1.1" xmlns="http://www.w3.org/2000/svg" xmlns:xlink="http://www.w3.org/1999/xlink">
    <g id="↳-10-&quot;Branjsekalkis&quot;-STAMI" stroke="none" stroke-width="1" fill="none" fill-rule="evenodd">
        <g id="Landingsside-SF-statistikk" transform="translate(-509.000000, -360.000000)">
            <g id="4-tall" transform="translate(161.000000, 228.000000)">
                <g id="Group-20" transform="translate(243.000000, 132.000000)">
                    <g id="Color/26-places/building-2" transform="translate(102.000000, 0.000000)">
                        <g id="Group-19" transform="translate(3.000000, 0.000000)">
                            <path d="M0,2 L1.91638908,0.147000001 C1.99411964,0.0718000003 2.09368092,0.0228400001 2.2007837,0.00626400003 L2.28230156,0 L15.7197657,0 C15.8297462,0 15.9357575,0.0339200001 16.0229811,0.0956160004 L16.0846446,0.147000001 L18,2 L0,2 Z" id="Path" fill="#669DB4"></path>
                            <path d="M18,2 L18,23.5 C18,23.7453334 17.8230124,23.9495803 17.5898382,23.9919396 L17.5,24 L11,24 L11,19.5 C11,19.2546667 10.8230124,19.0504198 10.5898381,19.0080604 L10.5,19 L7.5,19 C7.25466669,19 7.05041976,19.1769877 7.00806036,19.4101619 L7,19.5 L7,24 L0.5,24 C0.254666667,24 0.0504197533,23.8230124 0.00806035668,23.5898382 L0,23.5 L0,2 L18,2 Z M5.00000001,14.0000001 L2.00000001,14.0000001 L2.00000001,17.0000001 L5.00000001,17.0000001 L5.00000001,14.0000001 Z M11,14.0000001 L7.00000003,14.0000001 L7.00000003,17.0000001 L11,17.0000001 L11,14.0000001 Z M16.0000001,14.0000001 L13.0000001,14.0000001 L13.0000001,17.0000001 L16.0000001,17.0000001 L16.0000001,14.0000001 Z M5.00000001,9.00000003 L2.00000001,9.00000003 L2.00000001,12 L5.00000001,12 L5.00000001,9.00000003 Z M11,9.00000003 L7.00000003,9.00000003 L7.00000003,12 L11,12 L11,9.00000003 Z M16.0000001,9.00000003 L13.0000001,9.00000003 L13.0000001,12 L16.0000001,12 L16.0000001,9.00000003 Z M5.00000001,4.00000001 L2.00000001,4.00000001 L2.00000001,7.00000001 L5.00000001,7.00000001 L5.00000001,4.00000001 Z M11,4.00000001 L7.00000003,4.00000001 L7.00000003,7.00000001 L11,7.00000001 L11,4.00000001 Z M16.0000001,4.00000001 L13.0000001,4.00000001 L13.0000001,7.00000001 L16.0000001,7.00000001 L16.0000001,4.00000001 Z" id="Shape" fill="#0C5472"></path>
                            <rect id="Rectangle" fill="#FFD399" x="2" y="4" width="3" height="3"></rect>
                            <rect id="Rectangle-Copy" fill="#FFD399" x="13" y="4" width="3" height="3"></rect>
                            <rect id="Rectangle-Copy-2" fill="#FFD399" x="13" y="9" width="3" height="3"></rect>
                            <rect id="Rectangle-Copy-5" fill="#FFD399" x="2" y="9" width="3" height="3"></rect>
                            <rect id="Rectangle-Copy-7" fill="#FFD399" x="7" y="9" width="4" height="3"></rect>
                            <rect id="Rectangle-Copy-8" fill="#FFD399" x="7" y="14" width="4" height="3"></rect>
                            <rect id="Rectangle-Copy-9" fill="#FFD399" x="7" y="4" width="4" height="3"></rect>
                            <rect id="Rectangle-Copy-4" fill="#FFD399" x="13" y="14" width="3" height="3"></rect>
                            <rect id="Rectangle-Copy-6" fill="#FFD399" x="2" y="14" width="3" height="3"></rect>
                        </g>
                    </g>
                </g>
            </g>
        </g>
    </g>
</svg>
