<?xml version="1.0" encoding="UTF-8"?>
<svg width="24px" height="24px" viewBox="0 0 24 24" version="1.1" xmlns="http://www.w3.org/2000/svg" xmlns:xlink="http://www.w3.org/1999/xlink">
    <!-- Generator: Sketch 62 (91390) - https://sketch.com -->
    <title>Fill 1957 + Fill 1958</title>
    <desc>Created with Sketch.</desc>
    <g id="↳-10-&quot;Branjsekalkis&quot;-STAMI" stroke="none" stroke-width="1" fill="none" fill-rule="evenodd">
        <g id="Landingsside-SF-statistikk" transform="translate(-750.000000, -360.000000)">
            <g id="4-tall" transform="translate(161.000000, 228.000000)">
                <g id="Group-22" transform="translate(487.000000, 132.000000)">
                    <g id="Fill-1957-+-Fill-1958" transform="translate(102.000000, 0.000000)">
                        <path d="M20.5,13 L11,13 L11,3.5 C11,3.224 10.775,3 10.5,3 C4.71,3 0,7.71 0,13.5 C0,19.29 4.71,24 10.5,24 C16.289,24 21,19.29 21,13.5 C21,13.224 20.775,13 20.5,13" id="Fill-1957" fill="#66A4DC"></path>
                        <path d="M13.5,0 C13.224,0 13,0.224 13,0.5 L13,10.5 C13,10.775 13.224,11 13.5,11 L23.5,11 C23.775,11 24,10.775 24,10.5 C24,4.71 19.289,0 13.5,0" id="Fill-1958" fill="#FFA733"></path>
                    </g>
                </g>
            </g>
        </g>
    </g>
</svg>
