<svg width="92" height="108" xmlns="http://www.w3.org/2000/svg" xmlns:xlink="http://www.w3.org/1999/xlink"><defs><path d="M0 14.345v65.108c0 2.335 1.839 4.228 4.108 4.228h55.003c2.267 0 4.105-1.893 4.105-4.228V4.229C63.216 1.893 61.378 0 59.111 0H15.219L0 14.345z" id="a"/></defs><g fill="none" fill-rule="evenodd"><path d="M74.228 8.809H5.158C2.306 8.809 0 11.139 0 14.017v87.947c0 .537.08 1.06.23 1.546a5.226 5.226 0 001.652 2.47 5.102 5.102 0 003.275 1.19h69.07c2.851 0 5.161-2.332 5.161-5.206V14.017c0-2.879-2.31-5.208-5.16-5.208" fill="#515658"/><g transform="translate(7.35 16.149)"><mask id="b" fill="#fff"><use xlink:href="#a"/></mask><g mask="url(#b)" fill="#FFF"><path d="M-9-11.7h81V94.5H-9z"/></g></g><path d="M22.57 16.149v9.99c0 2.406-1.958 4.355-4.374 4.355H7.351L22.57 16.15z" fill="#C9C9C9"/><path d="M16.317 74.04a.416.416 0 01-.222-.763l9.544-6.26a.402.402 0 01.448.003l9.06 6.106 8.96-6.177a.406.406 0 01.568.11.42.42 0 01-.108.577l-9.186 6.334a.409.409 0 01-.457.002l-9.066-6.11-9.32 6.113a.398.398 0 01-.22.066" fill="#B5B7B7"/><path d="M27.034 67.365c0 .659-.525 1.193-1.173 1.193a1.183 1.183 0 01-1.174-1.193c0-.658.526-1.191 1.174-1.191.648 0 1.173.533 1.173 1.191M36.308 73.625c0 .649-.519 1.175-1.157 1.175-.64 0-1.158-.526-1.158-1.175 0-.648.518-1.174 1.158-1.174.638 0 1.157.526 1.157 1.174M49.941 58.336h2.728V37.364h-2.728z" fill="#561D5B"/><path fill="#97AB48" d="M54.778 58.336h2.728V47.502h-2.728z"/><path fill="#0C576F" d="M59.613 58.336h2.73V44.09h-2.73z"/><path fill="#B1CAC9" d="M15.93 58.336h28.816V37.692H15.93z"/><path d="M27.882 42.09c-3.222 1.378-4.735 5.145-3.38 8.418l5.836-2.493-2.456-5.924z" fill="#561D5B"/><path d="M36.172 45.522c-1.355-3.273-5.066-4.808-8.29-3.432l2.457 5.925 5.833-2.493z" fill="#561D5B"/><path d="M24.503 50.508c1.355 3.272 5.067 4.808 8.29 3.431l-2.455-5.924-5.835 2.493z" fill="#E4E4DB"/><path d="M30.338 48.015l2.455 5.923c3.222-1.376 4.736-5.144 3.379-8.416l-5.834 2.493z" fill="#7C7086"/><path fill="#B5B7B7" d="M49.941 68.009h12.402v-1.835H49.94zM49.941 71.404h12.402V69.57H49.94zM49.941 74.8h12.402v-1.834H49.94z"/><path d="M40.431 12.174c-.898 0-1.625-.75-1.625-1.681s.727-1.686 1.625-1.686c.895 0 1.624.755 1.624 1.686 0 .93-.73 1.68-1.624 1.68m10.036-6.882h-6.048V4.133C44.42 1.85 42.632 0 40.431 0c-2.208 0-3.99 1.85-3.99 4.133v1.158h-6.048c-2.98 0-5.4 2.507-5.4 5.596v6.73h30.873v-6.73c0-3.09-2.419-5.596-5.4-5.596" fill="#2F3237"/><g><path d="M72.918 37.8c5.432 7.663 3.608 18.267-4.077 23.684-7.686 5.416-18.32 3.596-23.751-4.067-5.434-7.663-3.607-18.267 4.078-23.683 7.684-5.417 18.318-3.596 23.75 4.066z" fill="#C2EAF7" opacity=".498"/><path d="M90.264 91.059a3.996 3.996 0 01-5.564-.955L71.098 70.89a3.982 3.982 0 01.955-5.556 3.994 3.994 0 015.562.954l13.603 19.216a3.983 3.983 0 01-.954 5.556" fill="#C52C35"/><path d="M49.407 34.071c-7.486 5.277-9.27 15.645-3.98 23.108 5.291 7.464 15.688 9.244 23.174 3.968 7.486-5.278 9.27-15.645 3.98-23.109-5.292-7.463-15.688-9.244-23.174-3.967M70.155 63.34c-8.698 6.131-20.778 4.065-26.929-4.61-6.148-8.674-4.074-20.72 4.626-26.852 8.698-6.133 20.778-4.065 26.93 4.609 6.148 8.675 4.073 20.72-4.627 26.853" fill="#2F3238"/><path d="M74.677 68.423c-1.184.85-2.464 1.082-3.302-.122l-2.8-4.023a2.694 2.694 0 01.629-3.718 2.6 2.6 0 013.661.638l2.8 4.023c.837 1.204.196 2.352-.988 3.202" fill="#2F3238"/><path d="M72.637 72.189L86.023 91.2c.443.63 1.307.779 1.933.334a1.395 1.395 0 00.331-1.941l-12.81-18.194c-1.062.724-2.062.917-2.84.79" fill="#D94C56"/><path d="M53.323 58.938c1.287.49 2.67.756 4.111.756 6.836 0 12.378-5.997 12.378-13.396 0-4.651-2.19-8.75-5.516-11.15 4.815 1.834 8.266 6.8 8.266 12.639 0 7.398-5.541 13.396-12.377 13.396-2.538 0-4.898-.827-6.862-2.245z" fill="#FFF" fill-rule="nonzero"/></g></g></svg>