<svg xmlns="http://www.w3.org/2000/svg" xmlns:xlink="http://www.w3.org/1999/xlink" width="116" height="151" viewBox="0 0 116 151">
    <defs>
        <path id="a" d="M0 15.94v72.34c0 2.595 2.043 4.7 4.564 4.7H65.68c2.518 0 4.561-2.105 4.561-4.7V4.7C70.24 2.104 68.197 0 65.68 0h-48.77L0 15.94z"/>
    </defs>
    <g fill="none" fill-rule="evenodd">
        <path fill="#515658" d="M82.475 9.787H5.73C2.563 9.787 0 12.376 0 15.574v97.72c0 .596.09 1.176.256 1.717a5.806 5.806 0 0 0 1.835 2.745 5.67 5.67 0 0 0 3.64 1.323h76.744c3.168 0 5.734-2.592 5.734-5.785v-97.72c0-3.198-2.566-5.787-5.734-5.787"/>
        <g transform="translate(8.168 17.943)">
            <mask id="b" fill="#fff">
                <use xlink:href="#a"/>
            </mask>
        </g>
        <path fill="#C9C9C9" d="M25.077 17.943v11.101c0 2.673-2.175 4.839-4.859 4.839H8.168l16.91-15.94z"/>
        <path fill="#B5B7B7" d="M17.732 82.55a.463.463 0 0 1-.247-.848l10.604-6.956a.447.447 0 0 1 .498.003l10.067 6.785 9.954-6.863a.451.451 0 0 1 .632.123.466.466 0 0 1-.12.64l-10.207 7.038a.454.454 0 0 1-.507.002l-10.074-6.79-10.355 6.793a.442.442 0 0 1-.245.073"/>
        <path fill="#561D5B" d="M29.64 75.133c0 .732-.584 1.325-1.304 1.325-.72 0-1.304-.593-1.304-1.325 0-.731.583-1.324 1.304-1.324.72 0 1.304.593 1.304 1.324M39.943 82.089c0 .72-.576 1.305-1.285 1.305-.711 0-1.286-.585-1.286-1.305s.575-1.306 1.286-1.306c.71 0 1.285.585 1.285 1.306M55.092 65.1h3.031V41.798h-3.031z"/>
        <path fill="#97AB48" d="M60.466 65.1h3.031V53.063h-3.031z"/>
        <path fill="#0C576F" d="M65.839 65.1h3.032V49.273H65.84z"/>
        <path fill="#B1CAC9" d="M17.302 65.1h32.017V42.163H17.302z"/>
        <path fill="#561D5B" d="M30.582 47.05c-3.58 1.53-5.262 5.716-3.756 9.352l6.485-2.77-2.73-6.582zM39.793 50.863c-1.506-3.637-5.63-5.343-9.21-3.814l2.728 6.583 6.482-2.77z"/>
        <path fill="#E4E4DB" d="M26.827 56.402c1.506 3.637 5.63 5.343 9.21 3.814l-2.727-6.583-6.483 2.77z"/>
        <path fill="#7C7086" d="M33.31 53.633l2.728 6.581c3.58-1.529 5.262-5.716 3.755-9.35l-6.482 2.769z"/>
        <path fill="#B5B7B7" d="M55.092 75.848h13.78V73.81h-13.78zM55.092 79.62h13.78v-2.039h-13.78zM55.092 83.395h13.78v-2.039h-13.78z"/>
        <path fill="#2F3237" d="M44.924 13.526c-.999 0-1.807-.833-1.807-1.868 0-1.034.808-1.872 1.807-1.872.993 0 1.804.838 1.804 1.872 0 1.035-.81 1.868-1.804 1.868m11.15-7.647h-6.72V4.592C49.355 2.056 47.37 0 44.925 0c-2.454 0-4.435 2.056-4.435 4.592V5.88H33.77c-3.312 0-6 2.785-6 6.218v7.478h34.303v-7.478c0-3.433-2.687-6.218-5.999-6.218"/>
        <g>
            <path fill="#C2EAF7" d="M81.02 42c6.036 8.514 4.008 20.296-4.53 26.315-8.54 6.019-20.355 3.996-26.39-4.518-6.038-8.514-4.008-20.297 4.53-26.315 8.54-6.019 20.354-3.996 26.39 4.518z" opacity=".498"/>
            <path fill="#C52C35" d="M100.293 101.177a4.44 4.44 0 0 1-6.182-1.061l-15.114-21.35a4.425 4.425 0 0 1 1.061-6.174 4.438 4.438 0 0 1 6.181 1.06l15.115 21.351a4.426 4.426 0 0 1-1.061 6.174"/>
            <path fill="#2F3238" d="M54.896 37.857c-8.317 5.863-10.3 17.382-4.421 25.676 5.879 8.293 17.43 10.27 25.748 4.408 8.318-5.864 10.3-17.383 4.422-25.676-5.879-8.293-17.43-10.272-25.749-4.408m23.055 32.52c-9.665 6.813-23.087 4.517-29.922-5.122-6.831-9.637-4.526-23.022 5.14-29.835 9.665-6.814 23.087-4.517 29.921 5.121 6.832 9.639 4.527 23.023-5.14 29.837"/>
            <path fill="#2F3238" d="M82.974 76.025c-1.315.945-2.737 1.203-3.669-.135l-3.11-4.47c-.932-1.338-.618-3.187.698-4.131a2.89 2.89 0 0 1 4.068.709l3.111 4.47c.93 1.337.218 2.613-1.098 3.557"/>
            <path fill="#D94C56" d="M80.708 80.21l14.873 21.124a1.535 1.535 0 0 0 2.148.37 1.55 1.55 0 0 0 .368-2.157L83.864 79.332c-1.18.805-2.292 1.019-3.156.878"/>
            <path fill="#FFF" fill-rule="nonzero" d="M59.248 65.487c1.43.544 2.967.84 4.568.84 7.595 0 13.753-6.664 13.753-14.884 0-5.169-2.434-9.722-6.13-12.39 5.351 2.038 9.186 7.556 9.186 14.043 0 8.221-6.157 14.885-13.753 14.885-2.82 0-5.442-.919-7.624-2.494z"/>
            <g>
                <path fill="#E7E6E2" d="M112.282 82.711c1.528 0 2.762 1.071 2.762 2.394v25.464c0 1.322-1.234 2.393-2.762 2.393-1.524 0-2.76-1.071-2.76-2.393V85.105c0-1.323 1.236-2.394 2.76-2.394M106.22 78.584a2.751 2.751 0 0 1 2.762 2.744v33.016a2.752 2.752 0 0 1-2.761 2.745 2.752 2.752 0 0 1-2.762-2.745V81.328a2.751 2.751 0 0 1 2.762-2.744M100.156 73.924a2.756 2.756 0 0 1 2.762 2.746v39.572a2.753 2.753 0 0 1-2.762 2.743 2.752 2.752 0 0 1-2.76-2.743V76.67a2.755 2.755 0 0 1 2.76-2.746M94.091 69.825a2.755 2.755 0 0 1 2.763 2.746v26.403a2.753 2.753 0 0 1-2.763 2.746 2.753 2.753 0 0 1-2.762-2.746V72.57a2.755 2.755 0 0 1 2.762-2.746"/>
                <path fill="#E7E6E2" d="M111.918 117.774v-3.41c0-.933 1.635-1.711 1.635-1.711l-3.403-27.39H94.092l-2.764 8.995s-.676.206-1.351-.827c-.676-1.036-2.705-5.894-2.705-5.894s-2.702-5.734-5.2-4.701c-2.494 1.033-1.35 4.805-1.35 4.805s1.272 5.949 1.977 8.786c.889 3.588 2.963 7.236 4.679 9.927 1.714 2.685 4.99 6.609 6.135 6.609l.261 4.81h18.144z"/>
                <path fill="#99C2E8" d="M90.632 150.033h24.572v-32.259H90.632z"/>
                <path fill="#66A4DC" d="M90.632 125.15h24.572v-7.376H90.632z"/>
                <path fill="#2F3237" d="M112.641 121.516c0-.857-.7-1.551-1.56-1.551-.861 0-1.559.694-1.559 1.55 0 .856.698 1.551 1.558 1.551.862 0 1.561-.695 1.561-1.55"/>
            </g>
        </g>
    </g>
</svg>
