<?xml version="1.0" encoding="UTF-8"?>
<svg width="92px" height="108px" viewBox="0 0 92 108" version="1.1" xmlns="http://www.w3.org/2000/svg" xmlns:xlink="http://www.w3.org/1999/xlink">
    <!-- Generator: Sketch 57.1 (83088) - https://sketch.com -->
    <title>Forstørrelse Copy 2</title>
    <desc>Created with Sketch.</desc>
    <defs>
        <path d="M-1.13686838e-13,14.3453742 L-1.13686838e-13,79.4525448 C-1.13686838e-13,81.7879439 1.83880041,83.6813492 4.10800773,83.6813492 L59.1107625,83.6813492 C61.3776496,83.6813492 63.21645,81.7879439 63.21645,79.4525448 L63.21645,4.22880439 C63.21645,1.89340536 61.3776496,0 59.1107625,0 L15.218775,0 L-1.13686838e-13,14.3453742 Z" id="path-1"></path>
    </defs>
    <g id="↳-6" stroke="none" stroke-width="1" fill="none" fill-rule="evenodd">
        <g id="Artboard-Copy" transform="translate(-261.000000, -64.000000)">
            <g id="Forstørrelse-Copy-2" transform="translate(261.000000, 64.000000)">
                <g id="dokumenter/-utklippstavlen">
                    <g id="Group">
                        <path d="M74.2278735,8.80856308 L5.1572862,8.80856308 C2.30666535,8.80856308 -3.55271368e-15,11.1382352 -3.55271368e-15,14.0165889 L-3.55271368e-15,101.964308 C-3.55271368e-15,102.501126 0.08085825,103.023115 0.23081355,103.509514 C0.4822092,104.326604 0.9291348,105.05472 1.5142545,105.646406 C1.62745605,105.759108 1.75094865,105.876259 1.881792,105.980064 C2.64185955,106.61772 3.59157645,107.032939 4.6280322,107.142675 C4.8044502,107.16047 4.9808682,107.170851 5.1572862,107.170851 L74.2278735,107.170851 C77.0784943,107.170851 79.3881,104.838213 79.3881,101.964308 L79.3881,14.0165889 C79.3881,11.1382352 77.0784943,8.80856308 74.2278735,8.80856308" id="Fill-102" fill="#515658"></path>
                        <g transform="translate(7.350750, 16.149032)">
                            <g id="farger/-ark/-lys-grå">
                                <mask id="mask-2" fill="white">
                                    <use xlink:href="#path-1"></use>
                                </mask>
                                <g id="Mask"></g>
                                <g id="📄-ark" mask="url(#mask-2)" fill="#FFFFFF">
                                    <g transform="translate(-9.000000, -11.700000)" id="Rectangle">
                                        <rect x="0" y="0" width="81" height="106.2"></rect>
                                    </g>
                                </g>
                            </g>
                            <path d="M15.218775,0 L15.218775,9.99072607 C15.218775,12.3961742 13.2613167,14.3453742 10.8456774,14.3453742 L0,14.3453742 L15.218775,0 Z" id="Fill-59" fill="#C9C9C9"></path>
                            <g id="📊-innhold" transform="translate(8.100000, 20.700000)">
                                <g id="Group-2" transform="translate(0.456573, 0.514679)">
                                    <path d="M0.409885076,36.6772079 C0.275864893,36.6772079 0.1440239,36.6108239 0.0666626565,36.4880182 C-0.0575511715,36.2944055 -0.00307142238,36.0377305 0.1876077,35.9138184 L9.73137016,29.6529386 C9.86865912,29.5633236 10.0440839,29.5644299 10.1791937,29.6562576 L19.2402656,35.7622473 L28.1989155,29.5854507 C28.3852363,29.4571132 28.6402015,29.5057929 28.7676841,29.6960865 C28.8940771,29.8863801 28.8461349,30.1441615 28.6598142,30.272499 L19.4734389,36.6063985 C19.3339707,36.7004389 19.1552772,36.7004389 19.0168986,36.6086112 L9.95037875,30.4981961 L0.631072858,36.6108239 C0.563517969,36.6561846 0.48506713,36.6772079 0.409885076,36.6772079" id="Fill-44" fill="#B5B7B7"></path>
                                    <path d="M11.1270324,30.0017732 C11.1270324,30.6600562 10.6018476,31.1944271 9.95353857,31.1944271 C9.30522956,31.1944271 8.78004478,30.6600562 8.78004478,30.0017732 C8.78004478,29.3434902 9.30522956,28.8102257 9.95353857,28.8102257 C10.6018476,28.8102257 11.1270324,29.3434902 11.1270324,30.0017732" id="Fill-45" fill="#561D5B"></path>
                                    <path d="M20.4003574,36.261768 C20.4003574,36.9100937 19.8817101,37.4367201 19.2432075,37.4367201 C18.6036152,37.4367201 18.0860576,36.9100937 18.0860576,36.261768 C18.0860576,35.6134422 18.6036152,35.0868158 19.2432075,35.0868158 C19.8817101,35.0868158 20.4003574,35.6134422 20.4003574,36.261768" id="Fill-46" fill="#561D5B"></path>
                                    <polygon id="Fill-47" fill="#561D5B" points="34.0336967 20.9721219 36.7620425 20.9721219 36.7620425 0 34.0336967 0"></polygon>
                                    <polygon id="Fill-48" fill="#97AB48" points="38.8704088 20.9721219 41.5987546 20.9721219 41.5987546 10.1386646 38.8704088 10.1386646"></polygon>
                                    <polygon id="Fill-49" fill="#0C576F" points="43.7060313 20.9721219 46.4354668 20.9721219 46.4354668 6.72776289 43.7060313 6.72776289"></polygon>
                                    <polygon id="Fill-50" fill="#B1CAC9" points="0.0230788572 20.9721219 28.8385078 20.9721219 28.8385078 0.328588321 0.0230788572 0.328588321"></polygon>
                                    <path d="M11.9750641,4.72680385 C8.75313178,6.10421953 7.23968435,9.87136847 8.59514051,13.1439754 L14.4310112,10.6513508 L11.9750641,4.72680385 Z" id="Fill-51" fill="#561D5B"></path>
                                    <path d="M20.2651386,8.15817313 C18.9096825,4.88556622 15.1985219,3.34994134 11.9755,4.72625067 L14.4314471,10.6507977 L20.2651386,8.15817313 Z" id="Fill-52" fill="#561D5B"></path>
                                    <path d="M8.59568531,13.1438647 C9.95114146,16.4164717 13.662302,17.9520965 16.8853239,16.5757872 L14.4304664,10.6512402 L8.59568531,13.1438647 Z" id="Fill-53" fill="#E4E4DB"></path>
                                    <path d="M14.4310112,10.6512402 L16.8858687,16.5746808 C20.1078011,15.1983715 21.6212485,11.4301162 20.2647028,8.15861567 L14.4310112,10.6512402 Z" id="Fill-54" fill="#7C7086"></path>
                                    <polygon id="Fill-55" fill="#B5B7B7" points="34.0336967 30.6450098 46.4354668 30.6450098 46.4354668 28.8106682 34.0336967 28.8106682"></polygon>
                                    <polygon id="Fill-56" fill="#B5B7B7" points="34.0336967 34.0404224 46.4354668 34.0404224 46.4354668 32.2049745 34.0336967 32.2049745"></polygon>
                                    <polygon id="Fill-57" fill="#B5B7B7" points="34.0336967 37.4369414 46.4354668 37.4369414 46.4354668 35.6025999 34.0336967 35.6025999"></polygon>
                                </g>
                            </g>
                        </g>
                        <path d="M40.4312715,12.1736654 C39.5326231,12.1736654 38.805691,11.4235589 38.805691,10.4925967 C38.805691,9.56163444 39.5326231,8.80708065 40.4312715,8.80708065 C41.3256269,8.80708065 42.0554209,9.56163444 42.0554209,10.4925967 C42.0554209,11.4235589 41.3256269,12.1736654 40.4312715,12.1736654 M50.466655,5.29077106 L44.4193813,5.29077106 L44.4193813,4.13299796 C44.4193813,1.85006508 42.6321013,0 40.4312715,0 C38.2232867,0 36.4402997,1.85006508 36.4402997,4.13299796 L36.4402997,5.29077106 L30.3930259,5.29077106 C27.4123181,5.29077106 24.99255,7.79754995 24.99255,10.8869214 L24.99255,17.6171262 L55.8657,17.6171262 L55.8657,10.8869214 C55.8657,7.79754995 53.4473629,5.29077106 50.466655,5.29077106" id="Fill-105" fill="#2F3237"></path>
                    </g>
                </g>
                <g id="Forstørrelse" transform="translate(39.690000, 28.350000)">
                    <g id="gjenstander/kontor/-forstørrelsesglass">
                        <path d="M33.2280734,9.45019723 C38.660317,17.1127961 36.8355323,27.7168338 29.1509213,33.1335171 C21.4652305,38.5502004 10.8318105,36.729566 5.39956682,29.0669672 C-0.0337566122,21.4043683 1.7931876,10.8003306 9.47779866,5.38364728 C17.1624097,-0.0330360041 27.7958297,1.78759835 33.2280734,9.45019723 Z" id="Fill-95" fill="#C2EAF7" opacity="0.49781436"></path>
                        <path d="M50.5735709,62.7088534 C48.771785,63.9797965 46.2825347,63.5512879 45.0098268,61.7542438 L31.4076912,42.5386604 C30.1349833,40.7416163 30.5618403,38.2535741 32.3625029,36.9826309 C34.1631655,35.7116878 36.6524159,36.1401964 37.9251237,37.9372405 L51.5283826,57.1528239 C52.7999672,58.949868 52.3742335,61.4379102 50.5735709,62.7088534" id="Fill-97" fill="#C52C35"></path>
                        <path d="M9.71679749,5.7211972 C2.23075243,10.9983519 0.446248524,21.3655282 5.73720593,28.8293053 C11.0281633,36.2930824 21.4246899,38.0725485 28.910735,32.796528 C36.39678,27.5193733 38.1812839,17.152197 32.8903265,9.68841988 C27.5993691,2.22464273 17.2028426,0.4440425 9.71679749,5.7211972 M30.465494,34.9899553 C21.7670326,41.1211176 9.68722636,39.054714 3.53643151,30.3796751 C-2.61208863,21.7057702 -0.537560194,9.66006637 8.16203851,3.52776991 C16.8604999,-2.60452656 28.9403061,-0.536988837 35.091101,8.13691599 C41.2396211,16.8119549 39.1650927,28.8576588 30.465494,34.9899553" id="Fill-99" fill="#2F3238"></path>
                        <path d="M34.986963,40.0728191 C33.8026988,40.9231011 32.5230725,41.1550986 31.6847731,39.9511894 L28.8848976,35.9283981 C28.0465982,34.7233627 28.3293579,33.0599633 29.5136221,32.2096813 C30.6989952,31.3593992 32.3367838,31.6443282 33.1750831,32.8482374 L35.9749587,36.8710287 C36.8121492,38.0749379 36.1712272,39.2225371 34.986963,40.0728191" id="Fill-101" fill="#2F3238"></path>
                        <path d="M32.947013,43.8388253 L46.3332059,62.8502035 C46.7759376,63.4793299 47.6403186,63.628674 48.265765,63.1841697 C48.8923827,62.7396654 49.0399599,61.8718237 48.5972282,61.2426972 L35.7872893,43.0485955 C34.7249674,43.7729729 33.7247216,43.9658266 32.947013,43.8388253" id="Fill-103" fill="#D94C56"></path>
                        <path d="M13.6332468,30.5879146 C14.9195124,31.0779318 16.3030907,31.3444734 17.7441902,31.3444734 C24.5802026,31.3444734 30.1218856,25.3468017 30.1218856,17.9482987 C30.1218856,13.2966958 27.931305,9.19882972 24.6057325,6.79714666 C29.4210084,8.6315797 32.8724846,13.5979376 32.8724846,19.4367625 C32.8724846,26.8352655 27.3308016,32.8329372 20.4947891,32.8329372 C17.9567293,32.8329372 15.5970892,32.0061748 13.6332468,30.5879146 Z" id="Path" fill="#FFFFFF" fill-rule="nonzero"></path>
                    </g>
                </g>
            </g>
        </g>
    </g>
</svg>