<svg xmlns="http://www.w3.org/2000/svg" xmlns:xlink="http://www.w3.org/1999/xlink" width="140" height="140" viewBox="0 0 140 140"><defs><path id="c" d="M15.743.248l-.002-.08c0 2.08 3.086 7.632 9.259 16.658C31.042 7.992 34.127 2.485 34.255.305c2.65.719 6.587 2.705 9.862 5.97C47.39 9.535 50 14.441 50 18.25v2.315l-9.26 1.87V41.13H9.26V22.48L0 20.566V18.25c0-3.8 2.555-8.698 5.769-11.956C9.088 2.93 13.109.915 15.743.248z"/><path id="e" d="M10.782 53.61s-4.894-.896-4.894-5.566c0-.479.067-.942.191-1.38a4.944 4.944 0 01-3.118-4.073C1.205 41.843 0 40.004 0 38s.5-4 2.5-5c1-.405 0-1-.644-1.5C1 30.5.5 29.5.5 27c0-2 1.217-3.342 3.046-3.808 0 0 .136-.01.454-.192.536-.307.694-1.062 0-1.917C2.894 19.719 3.08 16 6.08 16c.11 0 .586-.364-.05-1C4 11 6.917 8 10 8c0-1 2-3 4-2-.85-1 1-4 3-4 1.333 0 2.333.344 3 1.033C20.764 1.01 22.097 0 24 0c2 0 3.308.834 4 2 1.362 2.297 3 1.033 3 1.033C32 1.066 36.308 0 38 4c.167-.018 1.728-.636 3 0 2 1 .955 3.027 1 3 2.39-1 5.656 2.146 5 5-.303 1.32 0 2.341 0 2.341 3.99 1.256 2.653 5.858 2.57 5.92C51.564 20.881 53 22.77 53 25c0 1.259-.24 2.126-1 3 2 0 3 2.302 3 4 0 2-1 3.824-2 4.02.627.833 1 1.875 1 3.006 0 2.463-1.771 4.507-4.09 4.887-.522 2.437-1.398 4.36-3.787 4.913C47 51 46.7 53.3 44.39 53.863c-.637.155-.274.175-.883.078-2.229-1.692-5.449-2.972-7.156-3.613l-.094-1.049.05-.087c4.428-2.832 7.863-7.603 9.519-13.368.203.113.432.176.674.176.83 0 1.5-.74 1.5-1.657v-6.685c0-.785-.491-1.44-1.152-1.613C46.848 26.028 45 25 45 23s-.938-2.141-1.38-1.917C41 23 36 21 36.36 16c-.43 1.63-1.66 3-3.36 3-1.87 0-4-1-4-3-2 0-3.686 1.026-3.686 3.395C25.314 22.658 21 24 19 23c-2.742-1.371-5.766.014-6.49 3.028-.73 3.032-4.678 3.477-6.48 1.988L6 28v6.343C6 35.26 6.673 36 7.5 36c.183 0 .359-.036.521-.102 1.675 5.768 5.132 10.534 9.58 13.347l.016.034-.042.994c-1.602.581-4.68 1.76-6.793 3.337z"/><circle id="a" cx="55" cy="55" r="55"/></defs><g fill="none" fill-rule="evenodd"><mask id="b" fill="#fff"><use xlink:href="#a"/></mask><use fill="#CCE1F3" xlink:href="#a"/><g mask="url(#b)"><path fill="#E7E5E2" fill-rule="nonzero" d="M54.913 24.5c10.69 0 19.437 9.757 20.41 22.19.698.339 1.177 1.097 1.177 1.968v6.685c0 1.13-.808 2.072-1.856 2.152l-.144.005c-.118 0-.233-.01-.345-.032-1.714 5.566-5.073 10.188-9.377 13.016l.22 2.48-.001.1L62.67 93.5H47.914l-.06-.43L45 73.03l.105-2.508c-4.326-2.82-7.703-7.45-9.428-13.032l-.033.005-.144.005c-1.116 0-2-.975-2-2.157v-6.685c0-.792.397-1.492.995-1.867C35.428 34.31 44.193 24.5 54.913 24.5z"/><g fill="#59514B"><path d="M47.885 51.946c-1.297.106-1.66-1.967-1.27-3.321.074-.257.504-1.425 1.264-1.425s1.095.639 1.141.748c.559 1.32.284 3.881-1.135 3.998m15.045 0c1.298.106 1.661-1.967 1.27-3.321-.073-.257-.503-1.425-1.263-1.425-.76 0-1.095.639-1.141.748-.559 1.32-.284 3.881 1.135 3.998"/><path fill-rule="nonzero" d="M55.889 53.99c.776-.135 1.305-.05 1.495.21.716.99.487 2.035-.741 2.894-.646.45-1.536.61-2.006.376-.23-.115-.5.002-.602.26-.101.26.003.562.233.676.778.387 1.974.173 2.856-.443 1.67-1.167 2.052-2.911.967-4.409-.459-.632-1.272-.762-2.34-.577-.25.043-.42.305-.382.584.038.28.271.471.52.428zm5.61 6.793a4.22 4.22 0 01-.318.53 6.807 6.807 0 01-1.075 1.222c-1.292 1.159-2.973 1.83-5.113 1.768-2.087-.06-3.76-.72-5.073-1.784a7.206 7.206 0 01-1.198-1.226 4.255 4.255 0 01-.356-.53.522.522 0 00-.676-.214.458.458 0 00-.23.631c.074.14.219.37.44.66.362.475.812.95 1.358 1.391 1.481 1.202 3.374 1.948 5.704 2.015 2.426.07 4.365-.704 5.844-2.03a7.761 7.761 0 001.226-1.396c.198-.29.327-.52.393-.66a.46.46 0 00-.261-.62.52.52 0 00-.665.243z"/></g><g transform="translate(30 70.87)"><mask id="d" fill="#fff"><use xlink:href="#c"/></mask><use fill="#D8A25D" xlink:href="#c"/><g fill="#A13A28" mask="url(#d)"><path d="M-33.333 66.826h117v-93h-117z"/></g><g mask="url(#d)"><path fill="#3E3832" d="M9.26 41.13h31.48V3.093c-.528-.443-1.326-.83-1.851-1.223l-1.852 18.664H12.963L11.111 1.87c-.506.342-.926.342-1.852.854V41.13z"/><path fill="#B7B1A9" fill-rule="nonzero" d="M16.667 25.24h16.666v8.412a1.86 1.86 0 01-1.852 1.87H18.52a1.86 1.86 0 01-1.852-1.87V25.24z"/><path fill="#E7E9E9" fill-rule="nonzero" d="M15.74 0l1.853 17.109a14.42 14.42 0 01-3.704.49c-1.852 0 0-1.87-1.852-1.87-.83 0-1.447-.31-1.852-.934V2.74a1 1 0 01.655-.938L15.74 0zm18.52-.935L39.156.85a1 1 0 01.658.94v12.07c-.405.623-1.022.935-1.852.935-1.852 0 0 1.87-1.852 1.87-1.234 0-2.469-.164-3.704-.49L34.26-.936z"/><path fill="#C6C2BF" fill-rule="nonzero" d="M13.889 17.293a.465.465 0 01-.463.468.465.465 0 01-.463-.468V7.011c0-.258.207-.468.463-.468s.463.21.463.468v10.282zm22.222-.934c0 .258.207.467.463.467s.463-.21.463-.467V6.076a.465.465 0 00-.463-.467.465.465 0 00-.463.467V16.36z"/></g><g fill-rule="nonzero"><path fill="#E7E5E2" d="M.926 24.304V41.13h8.333V26.284zm48.148 0V41.13h-8.333V26.284z"/><path fill="#B7B1A9" d="M0 19.63v6.01l10.185 2.403v-6.009zm50 0v6.01l-10.185 2.403v-6.009z"/></g></g><g transform="translate(28 21)"><mask id="f" fill="#fff"><use xlink:href="#e"/></mask><use fill="#333" xlink:href="#e"/><g fill="#3E3832" mask="url(#f)"><path d="M-7-6h69v79H-7z"/></g></g><g fill-rule="nonzero" transform="translate(31 12)"><circle cx="24" cy="2" r="2" fill="#6399B0"/><path fill="#6399B0" d="M19.4 2h9.2c10.797 0 18.25 13 18.25 19 .1 3.333.15 5.667.15 7H1c-.006-.667.044-3 .15-7 0-6 7.453-19 18.25-19z"/><path fill="#6399B0" d="M.841 25.862A145.63 145.63 0 0124 24c7.72 0 15.44.62 23.159 1.862a1 1 0 01.841.988V28a1 1 0 01-1 1H1a1 1 0 01-1-1v-1.15a1 1 0 01.841-.988z"/><path fill="#005B82" d="M4 28.137C9.333 26.712 16 26 24 26s14.667.712 20 2.137C44 30.86 42.73 34 37.865 34S29.383 31.877 24 31.877c-5.396 0-9 2.123-13.89 2.111C5.22 33.977 4 30.854 4 28.138z"/><ellipse cx="24" cy="17" fill="#8BB0C1" rx="7" ry="5"/></g></g></g></svg>