<?xml version="1.0" encoding="UTF-8"?>
<svg width="29px" height="10px" viewBox="0 0 29 10" version="1.1" xmlns="http://www.w3.org/2000/svg" xmlns:xlink="http://www.w3.org/1999/xlink">
    <!-- Generator: Sketch 62 (91390) - https://sketch.com -->
    <title>Group 15</title>
    <desc>Created with Sketch.</desc>
    <g id="⭐️-Mest-oppdaterte" stroke="none" stroke-width="1" fill="none" fill-rule="evenodd">
        <g id="Nye-innganger" transform="translate(-678.000000, -999.000000)">
            <g id="Group-8-Copy" transform="translate(648.000000, 953.000000)">
                <g id="Group-15" transform="translate(32.000000, 46.000000)">
                    <path d="M0.349935938,7.83842068 C0.235517334,7.83842068 0.122959194,7.78260465 0.0569126827,7.67934884 C-0.0491338289,7.51655814 -0.00262220104,7.30074419 0.160168497,7.19655814 L8.30807547,1.93237209 C8.42528478,1.85702326 8.57505222,1.85795349 8.69040105,1.93516279 L16.426215,7.06911628 L24.0745871,1.87562791 C24.2336569,1.76772093 24.4513313,1.80865116 24.5601685,1.96865116 C24.6680755,2.12865116 24.6271452,2.34539535 24.4680755,2.45330233 L16.6252848,7.77888372 C16.506215,7.85795349 16.3536569,7.85795349 16.2355173,7.78074419 L8.49505222,2.64306977 L0.538773148,7.78260465 C0.481098729,7.82074419 0.414121985,7.83842068 0.349935938,7.83842068" id="Fill-44" stroke="#6AB889" stroke-width="3"></path>
                    <path d="M11,2.49883991 C11,3.87935035 9.88115135,5 8.5,5 C7.11884865,5 6,3.87935035 6,2.49883991 C6,1.11832947 7.11884865,0 8.5,0 C9.88115135,0 11,1.11832947 11,2.49883991" id="Fill-45" fill="#117938"></path>
                    <path d="M19,7.5 C19,8.87947269 17.8794727,10 16.5,10 C15.1181733,10 14,8.87947269 14,7.5 C14,6.12052731 15.1181733,5 16.5,5 C17.8794727,5 19,6.12052731 19,7.5" id="Fill-46" fill="#117938"></path>
                </g>
            </g>
        </g>
    </g>
</svg>