<svg height="15" viewBox="0 0 28 10" width="42" xmlns="http://www.w3.org/2000/svg">
  <g fill="none" fill-rule="evenodd">
    <path
      d="M2.35 7.838a.347.347 0 01-.293-.159.347.347 0 01.103-.482l8.148-5.265a.348.348 0 01.382.003l7.736 5.134 7.649-5.193a.35.35 0 01.393.577L18.625 7.78a.353.353 0 01-.39.002l-7.74-5.138-7.956 5.14a.344.344 0 01-.19.055"
      stroke="#6AB889" stroke-width="3"/>
    <path
      d="M13 2.499a2.5 2.5 0 11-5.002 0A2.5 2.5 0 0113 2.5M21 7.5a2.5 2.5 0 11-5 0 2.5 2.5 0 015 0"
      fill="#117938"/>
  </g>
  <title>grafikon</title>
</svg>
