<svg width="120" height="120" viewBox="0 0 120 120" fill="none" xmlns="http://www.w3.org/2000/svg">
<circle cx="60" cy="60" r="60" fill="#CCE1F3"/>
<path fill-rule="evenodd" clip-rule="evenodd" d="M94.4164 82.2745H26.2114C24.7595 82.2745 23.5835 81.0802 23.5835 79.6066V34.6689C23.5835 33.1952 24.7595 32 26.2114 32H94.4164C95.8674 32 97.0434 33.1952 97.0434 34.6689V79.6066C97.0434 81.0802 95.8674 82.2745 94.4164 82.2745Z" fill="#B7B1A9"/>
<path fill-rule="evenodd" clip-rule="evenodd" d="M92.4086 77.7857H29.1141C28.5346 77.7857 28.0627 77.3141 28.0627 76.7318V38.4405C28.0627 37.8582 28.5346 37.3866 29.1141 37.3866H92.4086C92.99 37.3866 93.46 37.8582 93.46 38.4405V76.7318C93.46 77.3141 92.99 77.7857 92.4086 77.7857Z" fill="white"/>
<path fill-rule="evenodd" clip-rule="evenodd" d="M21.3018 80.479H99.3249C100.044 80.479 100.627 81.0622 100.627 81.7817V83.1723C100.627 84.6597 99.4217 85.8656 97.9352 85.8656H22.6915C21.205 85.8656 20 84.6597 20 83.1723V81.7817C20 81.0622 20.5828 80.479 21.3018 80.479Z" fill="#78706A"/>
<path fill-rule="evenodd" clip-rule="evenodd" d="M43.649 62.1609C43.4835 62.1609 43.3207 62.0801 43.2251 61.9306C43.0718 61.695 43.139 61.3827 43.3745 61.2319L55.1599 53.6126C55.3294 53.5036 55.546 53.5049 55.7129 53.6167L66.9022 61.0474L77.965 53.5305C78.1951 53.3743 78.5099 53.4336 78.6674 53.6652C78.8234 53.8967 78.7642 54.2104 78.5341 54.3666L67.1901 62.0747C67.0179 62.1891 66.7972 62.1891 66.6263 62.0774L55.4303 54.6413L43.9221 62.0801C43.8387 62.1353 43.7418 62.1609 43.649 62.1609Z" stroke="#6AB889" stroke-width="3"/>
<path fill-rule="evenodd" clip-rule="evenodd" d="M59.0534 54.4325C59.0534 56.4306 57.4351 58.0526 55.4374 58.0526C53.4396 58.0526 51.8213 56.4306 51.8213 54.4325C51.8213 52.4344 53.4396 50.8158 55.4374 50.8158C57.4351 50.8158 59.0534 52.4344 59.0534 54.4325Z" fill="#117938"/>
<path fill-rule="evenodd" clip-rule="evenodd" d="M70.625 60.2237C70.625 62.2203 69.0042 63.8421 67.0089 63.8421C65.0102 63.8421 63.3928 62.2203 63.3928 60.2237C63.3928 58.2271 65.0102 56.6053 67.0089 56.6053C69.0042 56.6053 70.625 58.2271 70.625 60.2237Z" fill="#117938"/>
</svg>
