<svg width="25" height="23" viewBox="0 0 25 23" fill="none" xmlns="http://www.w3.org/2000/svg">
<path fill-rule="evenodd" clip-rule="evenodd" d="M24 10.383C24 15.564 18.852 19.765 12.5 19.765C11.082 19.765 9.725 19.556 8.471 19.173L1.862 22.249L4.45 17.083C2.32 15.381 1 13.007 1 10.383C1 5.2 6.148 1 12.5 1C18.852 1 24 5.2 24 10.383Z" stroke="#0067C5" stroke-linejoin="round"/>
<path d="M12 11.7492V5.74921" stroke="#0067C5" stroke-linecap="round" stroke-linejoin="round"/>
<path fill-rule="evenodd" clip-rule="evenodd" d="M12.5 14.0002C12.5 14.2762 12.276 14.5002 12 14.5002C11.724 14.5002 11.5 14.2762 11.5 14.0002C11.5 13.7242 11.724 13.5002 12 13.5002C12.276 13.5002 12.5 13.7242 12.5 14.0002Z" stroke="#0067C5" stroke-linejoin="round"/>
</svg>
