<svg width="35" height="35" viewBox="0 0 55 55" fill="none" xmlns="http://www.w3.org/2000/svg">
<path d="M22.916 48.125H32.0827V54.04C32.0827 54.5702 31.6529 55 31.1227 55H23.876C23.3458 55 22.916 54.5702 22.916 54.04V48.125Z" fill="#B7B1A9"/>
<path fill-rule="evenodd" clip-rule="evenodd" d="M27.4993 11.459C17.3906 11.459 9.16602 19.5734 9.16602 29.5468C9.16602 37.4219 14.3304 44.3454 21.8583 46.7385V49.0259C21.8583 49.794 22.4901 50.4173 23.2686 50.4173H31.7301C32.5086 50.4173 33.1404 49.794 33.1404 49.0259V46.7385C40.6683 44.3426 45.8327 37.4219 45.8327 29.5468C45.8327 19.5734 37.6081 11.459 27.4993 11.459Z" fill="#FFA733"/>
<path fill-rule="evenodd" clip-rule="evenodd" d="M29.791 52.709H25.2077C23.9427 52.709 22.916 53.2223 22.916 53.8548C22.916 54.4873 23.9427 55.0007 25.2077 55.0007H29.791C31.056 55.0007 32.0827 54.4873 32.0827 53.8548C32.0827 53.2223 31.056 52.709 29.791 52.709Z" fill="#59514B"/>
<path fill-rule="evenodd" clip-rule="evenodd" d="M32.6562 48.125H22.3438C21.395 48.125 20.625 48.6383 20.625 49.2708C20.625 49.9033 21.395 50.4167 22.3438 50.4167H32.6562C33.605 50.4167 34.375 49.9033 34.375 49.2708C34.375 48.6383 33.605 48.125 32.6562 48.125Z" fill="#59514B"/>
<path fill-rule="evenodd" clip-rule="evenodd" d="M27.5003 9.16667C28.1603 9.16667 28.696 8.48222 28.696 7.63889V1.52778C28.696 0.684444 28.1603 0 27.5003 0C26.8403 0 26.3047 0.684444 26.3047 1.52778V7.63889C26.3047 8.48222 26.8403 9.16667 27.5003 9.16667Z" fill="#FFA733"/>
<path fill-rule="evenodd" clip-rule="evenodd" d="M53.8044 26.2578H49.0218C48.3618 26.2578 47.8262 26.7711 47.8262 27.4036C47.8262 28.0361 48.3618 28.5495 49.0218 28.5495H53.8044C54.4644 28.5495 55.0001 28.0361 55.0001 27.4036C55.0001 26.7711 54.4644 26.2578 53.8044 26.2578Z" fill="#FFA733"/>
<path fill-rule="evenodd" clip-rule="evenodd" d="M5.97826 26.2578H1.19565C0.535652 26.2578 0 26.7711 0 27.4036C0 28.0361 0.535652 28.5495 1.19565 28.5495H5.97826C6.63826 28.5495 7.17391 28.0361 7.17391 27.4036C7.17391 26.7711 6.63826 26.2578 5.97826 26.2578Z" fill="#FFA733"/>
<path fill-rule="evenodd" clip-rule="evenodd" d="M12.3868 13.4284C12.612 13.6443 12.9062 13.75 13.2004 13.75C13.4922 13.75 13.7864 13.6443 14.0116 13.4284C14.4598 12.9989 14.4598 12.3007 14.0116 11.8711L9.13479 7.19714C8.68664 6.76762 7.9581 6.76762 7.50994 7.19714C7.06179 7.62665 7.06179 8.32489 7.50994 8.75441L12.3868 13.4284Z" fill="#FFA733"/>
<path fill-rule="evenodd" clip-rule="evenodd" d="M41.8017 13.75C42.0957 13.75 42.3898 13.6421 42.615 13.4285L47.4902 8.7538C47.9383 8.32443 47.9383 7.62861 47.4902 7.19703C47.0399 6.76766 46.3139 6.76766 45.8659 7.19703L40.9884 11.8695C40.5403 12.3011 40.5403 12.9969 40.9884 13.4285C41.2135 13.6421 41.5076 13.75 41.8017 13.75Z" fill="#FFA733"/>
</svg>
