<svg width="20" height="20" viewBox="0 0 20 20" xmlns="http://www.w3.org/2000/svg"><title>Ekstern lenke, åpnes i ny fane</title><path d="M19.936.515A.834.834 0 0019.168 0h-4.992a.832.832 0 000 1.666h2.984L5.168 13.667a.833.833 0 001.177 1.178l11.99-12.002V5.83a.832.832 0 101.665 0V.833a.822.822 0 00-.064-.318m-2.421 8.244a.833.833 0 00-.832.834v8.742H1.664V3.305H10.4a.833.833 0 000-1.665H.833A.832.832 0 000 2.472v16.695c0 .46.373.833.833.833h16.682c.46 0 .832-.373.832-.833V9.592a.833.833 0 00-.832-.833" fill="#0067C5" fill-rule="nonzero"/></svg>
