<svg width="31" height="31" viewBox="0 0 31 31" fill="none" xmlns="http://www.w3.org/2000/svg" role="img">
    <title>lampeikon</title>
    <path fill-rule="evenodd" clip-rule="evenodd" d="M18.0837 28.4167C18.0837 29.8434 16.9271 31 15.5003 31C14.1384 31 13.0227 29.9462 12.9241 28.6095L12.917 28.4167H18.0837ZM19.3753 24.5417V27.125H11.6253V24.5417H19.3753ZM15.5003 0C21.2073 0 25.8337 4.68422 25.8337 10.4625C25.8337 12.6684 25.1594 14.7149 24.0081 16.4022L23.5017 17.1146C22.6595 18.3444 21.5232 20.3895 20.0929 23.25H10.9077L10.2193 21.8899C9.11728 19.7456 8.21549 18.1607 7.51395 17.1353L7.23419 16.7417C5.93619 14.9928 5.16699 12.8186 5.16699 10.4625C5.16699 4.68422 9.79338 0 15.5003 0ZM15.5003 2.58333C11.2274 2.58333 7.75033 6.10382 7.75033 10.4625C7.75033 12.0767 8.22643 13.6109 9.10001 14.9073L9.63267 15.6573L9.97784 16.1781C10.6303 17.1933 11.3916 18.5419 12.274 20.2388L12.4946 20.6667H18.506L18.73 20.2349C19.7799 18.2184 20.6572 16.6943 21.3824 15.6375L21.6959 15.1969C22.6996 13.8422 23.2503 12.1986 23.2503 10.4625C23.2503 6.10382 19.7733 2.58333 15.5003 2.58333Z" fill="#262626"/>
</svg>
