<svg xmlns="http://www.w3.org/2000/svg" xmlns:xlink="http://www.w3.org/1999/xlink" width="122" height="77" viewBox="0 0 122 77"><defs><path id="a" d="M10.125 19.665V.312H.255v19.353h9.87z"/></defs><g fill="none" fill-rule="evenodd"><path fill="#3E3832" d="M56.621 76.52c-21.075 0-38.163-17.128-38.163-38.257C18.458 17.132 35.546 0 56.62 0c21.083 0 38.173 17.132 38.173 38.263 0 21.129-17.09 38.258-38.173 38.258zM0 54.968l7.801-19.353h7.496L7.506 54.968zm96.264 0l7.702-19.353h4.086l-7.7 19.353z"/><g transform="translate(111.156 35.303)"><mask id="b" fill="#fff"><use xlink:href="#a"/></mask><path fill="#3E3832" d="M.255 19.665L7.955.312h2.17L2.424 19.665z" mask="url(#b)"/></g><path fill="#FEFEFE" d="M89.178 35.615h-6.785s-.468 0-.633.414L78.005 47.55l-3.752-11.522c-.165-.414-.636-.414-.636-.414H60.571a.524.524 0 00-.519.517v3.913c0-3.104-3.295-4.43-5.224-4.43-4.32 0-7.213 2.852-8.114 7.19-.048-2.878-.287-3.909-1.06-4.965-.355-.517-.869-.952-1.427-1.311-1.151-.676-2.185-.914-4.406-.914h-2.607s-.471 0-.638.414l-2.372 5.894v-5.79a.523.523 0 00-.517-.518h-6.034s-.466 0-.636.414l-2.466 6.128s-.247.613.316.613h2.32V54.45c0 .29.227.52.518.52h5.982c.282 0 .517-.23.517-.52V42.77h2.331c1.338 0 1.621.037 2.142.28.313.119.596.359.75.636.315.595.394 1.31.394 3.417v7.346c0 .29.233.52.52.52h5.733s.648 0 .904-.642l1.27-3.148c1.69 2.372 4.47 3.79 7.926 3.79h.755s.652 0 .91-.642l2.213-5.493v5.615c0 .29.237.52.52.52h5.852s.645 0 .905-.642c0 0 2.34-5.825 2.35-5.87h.003c.09-.484-.52-.484-.52-.484h-2.09v-9.995l6.572 16.349c.257.641.904.641.904.641h6.914s.65 0 .907-.641l7.286-18.085c.252-.627-.477-.627-.477-.627zM60.052 47.973h-3.93a2.84 2.84 0 01-2.839-2.84 2.846 2.846 0 012.838-2.846h1.1a2.844 2.844 0 012.831 2.846v2.84z"/></g></svg>