<svg width="24" height="24" viewBox="0 0 24 24" fill="none" xmlns="http://www.w3.org/2000/svg">
<path fill-rule="evenodd" clip-rule="evenodd" d="M12 0C5.38226 0 0 5.38226 0 12C0 18.6177 5.38226 24 12 24C18.6167 24 24 18.6177 24 12C24 5.38226 18.6167 0 12 0Z" fill="#669DB4"/>
<path fill-rule="evenodd" clip-rule="evenodd" d="M12 5C12.8624 5 13.5652 5.70122 13.5652 6.56522C13.5652 7.43078 12.8624 8.13043 12 8.13043C11.1344 8.13043 10.4348 7.43078 10.4348 6.56522C10.4348 5.70122 11.1344 5 12 5Z" fill="white"/>
<path d="M14.9756 17.0101C15.5394 17.0101 16.0191 17.4412 16.0191 18.0014C16.0191 18.5616 15.5394 18.9927 14.9756 18.9927H9.3913C8.82669 18.9927 8.34782 18.5617 8.34782 18.0014C8.34782 17.4411 8.82669 17.0101 9.3913 17.0101H10.9906V11.9952H10.0048C9.4402 11.9952 8.96133 11.5643 8.96133 11.0039C8.96133 10.4436 9.4402 10.0126 10.0048 10.0126H12.0341C12.5979 10.0126 13.0776 10.4438 13.0776 11.0039V17.0101H14.9756Z" fill="white"/>
</svg>
