<svg width="54" height="49" viewBox="0 0 54 49" fill="none" xmlns="http://www.w3.org/2000/svg">
<path fill-rule="evenodd" clip-rule="evenodd" d="M40 6.99946C40 5.89538 40.8962 5 42 5C43.1038 5 44 5.89538 44 6.99946C44 8.10462 43.1038 9 42 9C40.8962 9 40 8.10462 40 6.99946ZM10 6.99946C10 5.89538 10.8954 5 11.9995 5C13.1046 5 14 5.89538 14 6.99946C14 8.10462 13.1046 9 11.9995 9C10.8954 9 10 8.10462 10 6.99946ZM50.4904 0H3.50958C1.57114 0 0 1.55109 0 3.4638V13H54V3.4638C54 2.02902 53.1159 0.797534 51.8566 0.271709C51.4369 0.0967596 50.9745 0 50.4904 0Z" fill="#BA3A26"/>
<path fill-rule="evenodd" clip-rule="evenodd" d="M0.000990008 13L0 24.2611V45.437C0 47.4045 1.57114 49 3.50958 49H50.4904C52.4289 49 53.999 47.4045 53.999 45.437L54 31.0131V13H0.000990008Z" fill="#E7E9E9"/>
<path d="M11.0058 22C10.4503 22 10 21.5523 10 21C10 20.4477 10.4503 20 11.0058 20H42.9942C43.5497 20 44 20.4477 44 21C44 21.5523 43.5497 22 42.9942 22H11.0058Z" fill="#78706A"/>
<path d="M11.0058 29C10.4503 29 10 28.5523 10 28C10 27.4477 10.4503 27 11.0058 27H42.9942C43.5497 27 44 27.4477 44 28C44 28.5523 43.5497 29 42.9942 29H11.0058Z" fill="#78706A"/>
<path fill-rule="evenodd" clip-rule="evenodd" d="M29 28C29 30.7614 31.2386 33 34 33C36.7614 33 39 30.7614 39 28C39 25.2386 36.7614 23 34 23C31.2386 23 29 25.2386 29 28ZM37 28C37 29.6569 35.6569 31 34 31C32.3431 31 31 29.6569 31 28C31 26.3431 32.3431 25 34 25C35.6569 25 37 26.3431 37 28Z" fill="#06893A"/>
<path d="M11.0058 36C10.4503 36 10 35.5523 10 35C10 34.4477 10.4503 34 11.0058 34H42.9942C43.5497 34 44 34.4477 44 35C44 35.5523 43.5497 36 42.9942 36H11.0058Z" fill="#78706A"/>
<path d="M11.0058 43C10.4503 43 10 42.5523 10 42C10 41.4477 10.4503 41 11.0058 41H42.9942C43.5497 41 44 41.4477 44 42C44 42.5523 43.5497 43 42.9942 43H11.0058Z" fill="#78706A"/>
</svg>
