<svg width="24" height="24" viewBox="0 0 24 24" fill="none" xmlns="http://www.w3.org/2000/svg">
<path d="M23 13C23 11.896 22.103 11 21 11H13.641C13.928 9.824 14.5 7.282 14.5 5.719C14.5 3.761 13.33 2.869 12.244 2.869C11.25 2.869 10.5 3.57 10.5 4.5C10.5 8.92 6.81 12 3.5 12H0.5C0.224 12 0 12.224 0 12.5V21.5C0 21.776 0.224 22 0.5 22C5.083 22 6.65 22.673 7.91 23.214C8.852 23.619 9.74 24 11.5 24H18C19.103 24 20 23.103 20 22C20 21.588 19.875 21.206 19.661 20.888C20.439 20.613 21 19.871 21 19C21 18.588 20.875 18.206 20.661 17.888C21.439 17.613 22 16.871 22 16C22 15.588 21.875 15.206 21.661 14.888C22.439 14.613 23 13.871 23 13Z"
      fill="#0067C5"/>
</svg>
