<?xml version="1.0" encoding="UTF-8"?>
<svg width="20px" height="20px" viewBox="0 0 20 20" version="1.1" xmlns="http://www.w3.org/2000/svg" xmlns:xlink="http://www.w3.org/1999/xlink">
    <g id="⭐️-Mest-oppdaterte" stroke="none" stroke-width="1" fill="none" fill-rule="evenodd">
        <g id="Nye-innganger" transform="translate(-843.000000, -1104.000000)" fill="#0067C5" fill-rule="nonzero">
            <g id="Group-5" transform="translate(648.000000, 953.000000)">
                <g id="Group-10" transform="translate(-0.000000, -0.000000)">
                    <path d="M214.935833,151.515 C214.851667,151.310833 214.689167,151.149167 214.485833,151.064167 C214.384167,151.0225 214.276667,151 214.168333,151 L209.175833,151 C208.715833,151 208.344167,151.373333 208.344167,151.8325 C208.344167,152.293333 208.715833,152.665833 209.175833,152.665833 L212.16,152.665833 L200.168333,164.6675 C199.843333,164.9925 199.843333,165.519167 200.168333,165.845 C200.330833,166.0075 200.543333,166.089167 200.756667,166.089167 C200.97,166.089167 201.1825,166.0075 201.345,165.845 L213.335833,153.843333 L213.335833,156.829167 C213.335833,157.289167 213.708333,157.661667 214.168333,157.661667 C214.628333,157.661667 215,157.289167 215,156.829167 L215,151.8325 C215,151.724167 214.978333,151.616667 214.935833,151.515 M212.515,159.759167 C212.055,159.759167 211.6825,160.1325 211.6825,160.5925 L211.6825,169.335 L196.664167,169.335 L196.664167,154.305 L205.4,154.305 C205.86,154.305 206.2325,153.931667 206.2325,153.4725 C206.2325,153.0125 205.86,152.64 205.4,152.64 L195.8325,152.64 C195.3725,152.64 195,153.0125 195,153.4725 L195,170.1675 C195,170.6275 195.3725,171 195.8325,171 L212.515,171 C212.974167,171 213.346667,170.6275 213.346667,170.1675 L213.346667,160.5925 C213.346667,160.1325 212.974167,159.759167 212.515,159.759167" id="Fill-1"></path>
                </g>
            </g>
        </g>
    </g>
</svg>
