<?xml version="1.0" encoding="UTF-8"?>
<svg width="24px" height="22px" viewBox="0 0 24 22" version="1.1" xmlns="http://www.w3.org/2000/svg" xmlns:xlink="http://www.w3.org/1999/xlink">
    <desc>Video ikon</desc>
    <g id="⭐️-Mest-oppdaterte" stroke="none" stroke-width="1" fill="none" fill-rule="evenodd">
        <g id="Nye-innganger" transform="translate(-681.000000, -992.000000)">
            <g id="Film" transform="translate(681.000000, 992.000000)">
                <path d="M24,7.00000003 L24,20.1010001 C24,21.1480001 23.1310001,22 22.0630001,22 L22.0630001,22 L1.93800001,22 C0.869000004,22 -7.63833441e-14,21.1480001 -7.63833441e-14,20.1010001 L-7.63833441e-14,20.1010001 L-7.63833441e-14,7.00000003 L24,7.00000003 Z M16.2940001,1.39444012e-13 L10.294,6 L7.70700003,6 L13.7080001,1.39444012e-13 L16.2940001,1.39444012e-13 Z M22.5000001,1.39444012e-13 C22.9880001,1.39444012e-13 23.4190001,0.238000001 23.6930001,0.602000003 L23.6930001,0.602000003 L18.2940001,6 L15.7080001,6 L21.7080001,1.39444012e-13 Z M12.2940001,1.39444012e-13 L6.29300003,6 L3.70700002,6 L9.70800004,1.39444012e-13 L12.2940001,1.39444012e-13 Z M8.29400003,1.39444012e-13 L2.29300001,6 L0.209,6 L6.209,1.39444012e-13 L8.29400003,1.39444012e-13 Z M20.2940001,1.39444012e-13 L14.2940001,6 L11.708,6 L17.708,1.39444012e-13 L20.2940001,1.39444012e-13 Z M24.0000001,1.70800001 L24.0000001,6.00000003 L19.7080001,6.00000003 L24.0000001,1.70800001 Z M4.79400002,3.27782246e-12 L-7.90478794e-14,4.79400002 L-7.90478794e-14,1.50100001 C-7.90478794e-14,0.674000003 0.674000003,3.27782246e-12 1.5,3.27782246e-12 L1.5,3.27782246e-12 L4.79400002,3.27782246e-12 Z" id="Combined-Shape-Copy" fill="#99BDCD"></path>
                <path d="M8,10.5002462 C8,10.3272462 8.09,10.1662462 8.237,10.0752462 C8.384,9.98324615 8.569,9.97524615 8.724,10.0532462 L16.724,14.0532462 C16.894,14.1382462 17,14.3112462 17,14.5002462 C17,14.6892462 16.894,14.8622462 16.725,14.9472462 L8.725,18.9472462 C8.653,18.9822462 8.577,19.0002462 8.5,19.0002462 C8.409,19.0002462 8.318,18.9762462 8.237,18.9262462 C8.09,18.8342462 8,18.6742462 8,18.5002462 L8,10.5002462 Z" id="Path" fill="#194D62"></path>
            </g>
        </g>
    </g>
</svg>
