<svg width="24" height="22" viewBox="0 0 24 22" xmlns="http://www.w3.org/2000/svg"><title>Videoikon</title><g fill="none" fill-rule="evenodd"><path d="M24 7v13.101C24 21.148 23.131 22 22.063 22H1.938C.869 22 0 21.148 0 20.101V7h24zm-7.706-7l-6 6H7.707l6.001-6h2.586zM22.5 0c.488 0 .919.238 1.193.602L18.294 6h-2.586l6-6zM12.294 0L6.293 6H3.707l6.001-6h2.586zm-4 0L2.293 6H.209l6-6h2.085zm12 0l-6 6h-2.586l6-6h2.586zM24 1.708V6h-4.292L24 1.708zM4.794 0L0 4.794V1.501C0 .674.674 0 1.5 0h3.294z" fill="#99BDCD"/><path d="M8 10.5a.5.5 0 01.724-.447l8 4a.499.499 0 01.001.894l-8 4a.512.512 0 01-.488-.02A.502.502 0 018 18.5v-8z" fill="#194D62"/></g></svg>
